<?xml version="1.0" encoding="utf-8"?>
<!-- Generator: Adobe Illustrator 25.2.1, SVG Export Plug-In . SVG Version: 6.00 Build 0)  -->
<svg version="1.1" id="Layer_1" xmlns="http://www.w3.org/2000/svg" xmlns:xlink="http://www.w3.org/1999/xlink" x="0px" y="0px"
	 viewBox="0 0 1000 203" style="enable-background:new 0 0 1000 203;" xml:space="preserve">
<g>
	<path d="M933.3,1.1c-37.8,0-65.7,24.4-65.7,58.3c0,33.9,27.9,58.3,65.7,58.3c37.8,0,65.7-24.4,65.7-58.3
		C999,25.5,971.1,1.1,933.3,1.1"/>
	<path d="M836.4,135.2c-21.6,0-37.6,14-37.6,33.3c0,19.4,15.9,33.3,37.6,33.3c21.6,0,37.6-14,37.6-33.3
		C874,149.2,858,135.2,836.4,135.2"/>
	<rect x="1" y="40.5" width="21.3" height="159"/>
	<polygon points="233.9,40.5 213.5,40.5 213.5,169.1 97,40.5 74.4,40.5 74.4,199.5 94.8,199.5 94.8,66.4 215,199.5 233.9,199.5 	"/>
	<polygon points="350.9,199.5 410.9,40.5 389.2,40.5 340,172.9 290.9,40.5 268.1,40.5 328.5,199.5 	"/>
	<path d="M593.2,120c0,37.4-29,62.9-70.6,62.9c-41.6,0-70.9-25.5-70.9-62.9s29.2-62.9,70.9-62.9C564.2,57.1,593.2,82.5,593.2,120
		 M614.9,120c0-47.6-39.2-81.9-92.3-81.9s-92.3,34.3-92.3,81.9s39.2,81.9,92.3,81.9S614.9,167.6,614.9,120"/>
	<polygon points="693.9,113.3 648.5,40.5 625.5,40.5 683.1,132.6 683.1,199.5 704.3,199.5 704.3,132.6 761.9,40.5 739.3,40.5 	"/>
</g>
</svg>
